<svg id="Capa_1" enable-background="new 0 0 497 497" height="512" viewBox="0 0 497 497" width="512" xmlns="http://www.w3.org/2000/svg"><g><path d="m377 0 15 45h-45l-30-22.5 30-22.5z" fill="#ffc40f"/><path d="m347 0v45h-242l15-45z" fill="#ffd959"/><path d="m377 0v120h30v-90c0-16.57-13.43-30-30-30z" fill="#42999b"/><path d="m90 30v90h30v-120c-16.57 0-30 13.43-30 30z" fill="#46b8b5"/><path d="m377 437 60 60h22.5c4.142 0 7.5-3.358 7.5-7.5v-52.5z" fill="#ffc40f"/><path d="m30 437v52.5c0 4.142 3.358 7.5 7.5 7.5h399.5v-60z" fill="#ffd959"/><path d="m467 90h-30v377h30c16.569 0 30-13.431 30-30v-317c0-16.569-13.431-30-30-30z" fill="#ffd959"/><path d="m467 437v-317c0-16.569-13.431-30-30-30h-407c-16.569 0-30 13.431-30 30v317c0 16.569 13.431 30 30 30h407c16.569 0 30-13.431 30-30z" fill="#ffeaa6"/><path d="m437 332v45h-30l-30-75z" fill="#42999b"/><path d="m407 302v75h-347v-45l30-30z" fill="#46b8b5"/><path d="m437 150v182h-30l-60-91 60-91z" fill="#313842"/><path d="m407 150v182h-158.5l-60-91 60-91z" fill="#414851"/><path d="m60 150h188.5v182h-188.5z" fill="#62676f"/><g fill="#46b8b5"><circle cx="75" cy="422" r="15"/><circle cx="135" cy="422" r="15"/><circle cx="195" cy="422" r="15"/></g><circle cx="422" cy="422" fill="#3e7b81" r="15"/><path d="m171.375 309.5c-3.361 0-6.313-2.236-7.221-5.473l-27.029-96.279-9.904 35.279c-.908 3.236-3.859 5.473-7.221 5.473h-30c-4.143 0-7.5-3.358-7.5-7.5s3.357-7.5 7.5-7.5h24.315l15.589-55.527c.908-3.236 3.859-5.473 7.221-5.473s6.313 2.236 7.221 5.473l27.029 96.279 9.904-35.279c.908-3.236 3.859-5.473 7.221-5.473h30c4.143 0 7.5 3.358 7.5 7.5s-3.357 7.5-7.5 7.5h-24.315l-15.589 55.527c-.909 3.237-3.86 5.473-7.221 5.473z" fill="#fff"/><path d="m369.5 180c-2.932 0-5.783.342-8.521.979l-21.004 121.008 56.447-58.383c6.548-6.751 10.578-15.957 10.578-26.104 0-20.711-16.789-37.5-37.5-37.5z" fill="#ff4547"/><path d="m377 217.5c0-17.787-6.843-32.67-16.021-36.521-8.459 1.969-15.818 6.798-21.004 13.416-6.864-8.76-17.533-14.395-29.525-14.395-20.711 0-37.5 16.789-37.5 37.5 0 10.147 4.03 19.353 10.577 26.104l56.447 58.383 31.182-58.383c3.618-6.751 5.844-15.957 5.844-26.104z" fill="#fe7665"/></g></svg>