<svg id="Layer_1" enable-background="new 0 0 128 128" height="512" viewBox="0 0 128 128" width="512" xmlns="http://www.w3.org/2000/svg"><g><path d="m7 16.546c-.552 0-1 .448-1 1v86.516c0 .552.448 1 1 1h39.203l39.208 10.359c.231.055.425.022.511-.001l39.333-10.393c.439-.116.745-.513.745-.967v-86.514c0-.31-.144-.603-.39-.793-.246-.189-.567-.253-.866-.174l-39.077 10.325-39.079-10.325" fill="#e6e7e8"/><path d="m121 100.061-39.333 10.393v-86.516l39.333-10.392z" fill="#6dc9f7"/><path d="m3 13.546h39.333v86.516h-39.333z" fill="#6dc9f7"/><path d="m81.667 110.454-39.334-10.393v-86.515l39.334 10.392z" fill="#d4fbff"/><path d="m118 14.338v86.516l3-.793v-86.515z" fill="#fff"/><circle cx="105.396" cy="39.18" fill="#fa759e" r="10"/><circle cx="105.396" cy="39.18" fill="#ffd7e5" r="5"/><circle cx="17.167" cy="28.565" fill="#fa759e" r="10"/><circle cx="17.167" cy="28.565" fill="#ffd7e5" r="5.5"/><circle cx="17.167" cy="28.565" fill="#fa759e" r="2"/><circle cx="69.813" cy="71.187" fill="#fa759e" r="6.5"/><circle cx="69.813" cy="71.187" fill="#ffd7e5" r="3.575"/><circle cx="69.813" cy="71.187" fill="#fa759e" r="1.3"/><circle cx="97.479" cy="84.104" fill="#fa759e" r="12.917"/><circle cx="97.479" cy="84.104" fill="#ffd7e5" r="6.458"/><circle cx="60.125" cy="47.409" fill="#fa759e" r="9.687"/><circle cx="60.125" cy="47.409" fill="#ffd7e5" r="4.844"/><circle cx="22.432" cy="82.682" fill="#fa759e" r="7.266"/><circle cx="22.432" cy="82.682" fill="#ffd7e5" r="3.633"/><circle cx="31.514" cy="45.53" fill="#fa759e" r="5.449"/><circle cx="31.514" cy="45.53" fill="#ffd7e5" r="2.725"/><g fill="#3a2c60"><path d="m121.61 12.753c-.246-.188-.567-.254-.866-.174l-39.078 10.325-39.078-10.325c-.083-.022-.169-.033-.255-.033h-39.333c-.552 0-1 .448-1 1v86.516c0 .552.448 1 1 1h39.203l39.208 10.359c.083.022.169.033.255.033s.172-.011.255-.033l11.117-2.938c.534-.141.853-.688.711-1.222s-.69-.853-1.222-.711l-9.862 2.606v-84.447l37.335-9.865v84.448l-13.37 3.532c-.534.141-.853.688-.711 1.222.141.533.688.851 1.222.711l14.114-3.729c.439-.116.745-.513.745-.967v-86.516c0-.31-.144-.603-.39-.792zm-78.277 2.091 37.333 9.864v84.447l-37.333-9.864zm-39.333-.299h37.333v84.516h-37.333z"/><path d="m102.995 103.784-6.933 1.832c-.534.141-.853.688-.711 1.222.119.448.523.745.966.745.084 0 .17-.011.256-.034l6.933-1.832c.534-.141.853-.688.711-1.222-.141-.533-.689-.851-1.222-.711z"/></g></g></svg>