<?xml version="1.0" encoding="iso-8859-1"?>
<!-- Generator: Adobe Illustrator 19.0.0, SVG Export Plug-In . SVG Version: 6.00 Build 0)  -->
<svg version="1.1" id="Capa_1" xmlns="http://www.w3.org/2000/svg" xmlns:xlink="http://www.w3.org/1999/xlink" x="0px" y="0px"
	 viewBox="0 0 511.999 511.999" style="enable-background:new 0 0 511.999 511.999;" xml:space="preserve">
<polygon style="fill:#72D8FF;" points="91.981,208.577 173.985,161.232 255.989,208.577 255.989,303.267 173.985,350.612 
	91.981,303.267 "/>
<polygon style="fill:#4DBAF6;" points="10,350.615 92.004,303.27 174.008,350.615 174.008,445.304 92.004,492.649 10,445.304 "/>
<polygon style="fill:#72D8FF;" points="173.985,350.612 255.989,303.267 337.992,350.612 337.992,445.301 255.989,492.646 
	173.985,445.301 "/>
<g>
	<polygon style="fill:#C9F3FF;" points="337.991,350.482 419.995,303.137 502,350.482 502,445.172 419.995,492.516 337.991,445.172 
			"/>
	<polygon style="fill:#C9F3FF;" points="173.985,66.693 255.989,19.348 337.992,66.693 337.992,161.384 255.989,208.728 
		173.985,161.384 	"/>
</g>
<path d="M507,341.822l-82.004-47.345c-3.094-1.786-6.906-1.786-10,0L337.88,339l-71.891-41.507v-82.992l77.003-44.458
	c3.094-1.786,5-5.087,5-8.66V66.693c0-3.573-1.906-6.874-5-8.66l-82.004-47.345c-3.094-1.786-6.906-1.786-10,0l-82.004,47.345
	c-3.094,1.786-5,5.087-5,8.66v88.765l-77.003,44.458c-3.094,1.786-5,5.087-5,8.66v88.933L5,341.955c-3.094,1.786-5,5.087-5,8.66
	v94.69c0,3.573,1.906,6.874,5,8.66l82.004,47.345c1.547,0.893,3.273,1.34,5,1.34s3.453-0.447,5-1.34l76.994-44.453l76.988,44.45
	c1.547,0.893,3.273,1.34,5,1.34c1.727,0,3.453-0.447,5-1.34l77.115-44.523l76.891,44.393c1.547,0.893,3.273,1.34,5,1.34
	c1.727,0,3.453-0.447,5-1.34l82.004-47.345c3.094-1.786,5-5.087,5-8.66v-94.69C512,346.909,510.093,343.608,507,341.822z
	 M255.989,30.896l72.003,41.571v83.143l-19.989,11.541v-38.732c0-5.523-4.478-10-10-10s-10,4.477-10,10v50.279l-31.882,18.408
	l-72.134-41.647V72.467L255.989,30.896z M173.854,172.855l72.134,41.647v82.992l-36.002,20.786l-35.993,20.781l-72.012-41.576
	v-83.133L173.854,172.855z M92.004,481.102l-32.001-18.476v-55.118c0-5.523-4.478-10-10-10s-10,4.477-10,10v43.571l-20.001-11.548
	v-83.143l71.994-41.566l71.988,41.563v83.16L92.004,481.102z M255.989,481.099l-71.98-41.558v-83.17l35.979-20.772l36.002-20.786
	l72.003,41.571v83.143L255.989,481.099z M491.999,439.398l-72.003,41.571l-72.003-41.571v-83.143l72.003-41.571l72.003,41.571
	V439.398z"/>
<path d="M298.001,101.422c2.63,0,5.21-1.07,7.069-2.94c1.86-1.86,2.931-4.43,2.931-7.06c0-2.64-1.07-5.21-2.931-7.08
	c-1.859-1.86-4.439-2.93-7.069-2.93s-5.21,1.07-7.07,2.93c-1.86,1.86-2.93,4.44-2.93,7.08c0,2.63,1.069,5.21,2.93,7.06
	C292.791,100.352,295.371,101.422,298.001,101.422z"/>
<path d="M50,360.503c-2.63,0-5.21,1.07-7.07,2.93c-1.859,1.86-2.93,4.44-2.93,7.07c0,2.64,1.07,5.21,2.93,7.07
	c1.86,1.86,4.44,2.93,7.07,2.93s5.21-1.07,7.07-2.93c1.859-1.86,2.93-4.43,2.93-7.07c0-2.63-1.07-5.21-2.93-7.07
	C55.21,361.574,52.63,360.503,50,360.503z"/>
<g>
</g>
<g>
</g>
<g>
</g>
<g>
</g>
<g>
</g>
<g>
</g>
<g>
</g>
<g>
</g>
<g>
</g>
<g>
</g>
<g>
</g>
<g>
</g>
<g>
</g>
<g>
</g>
<g>
</g>
</svg>
