<?xml version="1.0"?>
<svg xmlns="http://www.w3.org/2000/svg" height="512px" viewBox="0 0 64 64" width="512px" class=""><g><path d="m57 61h-50a4 4 0 0 1 -4-4v-54h42l12 12z" fill="#cfdfe8" data-original="#CFDFE8"/><path d="m57 15h-12v-12z" fill="#bcccd3" data-original="#BCCCD3"/><path d="m47 5h10v10z" fill="#a3b1b5" data-original="#A3B1B5"/><path d="m57 8h4a0 0 0 0 1 0 0v49a4 4 0 0 1 -4 4 0 0 0 0 1 0 0v-53a0 0 0 0 1 0 0z" fill="#7d8789" data-original="#7D8789"/><path d="m13 14h-.307l-3-8h-3.693v10h2v-8h.307l3 8h3.693v-10h-2z" fill="#dd3e46" data-original="#DD3E46" class="active-path" style="fill:#394D5C" data-old_color="#dd3e46"/><path d="m32 14h-.323l-1.748-4.371a1 1 0 0 0 -1.858 0l-1.748 4.371h-.323v-8h-2v9a1 1 0 0 0 1 1h2a1 1 0 0 0 .929-.629l1.071-2.679 1.071 2.679a1 1 0 0 0 .929.629h2a1 1 0 0 0 1-1v-9h-2z" fill="#dd3e46" data-original="#DD3E46" class="active-path" style="fill:#394D5C" data-old_color="#dd3e46"/><path d="m17 16h5v-2h-3v-2h3v-2h-3v-2h3v-2h-5z" fill="#dd3e46" data-original="#DD3E46" class="active-path" style="fill:#394D5C" data-old_color="#dd3e46"/><path d="m42 8v-2h-5a1 1 0 0 0 -1 1v4a1 1 0 0 0 1 1h3v2h-4v2h5a1 1 0 0 0 1-1v-4a1 1 0 0 0 -1-1h-3v-2z" fill="#dd3e46" data-original="#DD3E46" class="active-path" style="fill:#394D5C" data-old_color="#dd3e46"/><path d="m6 18h48v2h-48z" fill="#7d8789" data-original="#7D8789"/><path d="m7 23h24v26h-24z" fill="#87cee9" data-original="#87CEE9" class=""/><path d="m14.826 31a4.3 4.3 0 0 0 -1.322.224 6.239 6.239 0 0 0 -5.982-4.224c-.178 0-.348.029-.522.043v8.957h11.852a3.807 3.807 0 0 0 .148-1 4.09 4.09 0 0 0 -4.174-4z" fill="#f4f4e6" data-original="#F4F4E6" class=""/><path d="m23.174 40a4.3 4.3 0 0 1 1.322.224 6.239 6.239 0 0 1 5.982-4.224c.178 0 .348.029.522.043v8.957h-11.852a3.807 3.807 0 0 1 -.148-1 4.09 4.09 0 0 1 4.174-4z" fill="#f4f4e6" data-original="#F4F4E6" class=""/><path d="m6 52h10v2h-10z" fill="#394d5c" data-original="#394D5C"/><path d="m6 56h6v2h-6z" fill="#394d5c" data-original="#394D5C"/><path d="m18 52h14v2h-14z" fill="#394d5c" data-original="#394D5C"/><path d="m14 56h18v2h-18z" fill="#394d5c" data-original="#394D5C"/><path d="m35 43h18v14h-18z" fill="#aabece" data-original="#AABECE" class="" style="fill:#AABECE"/><g fill="#394d5c"><path d="m34 22h13v2h-13z" data-original="#394D5C"/><path d="m49 22h5v2h-5z" data-original="#394D5C"/><path d="m34 26h8v2h-8z" data-original="#394D5C"/><path d="m44 26h10v2h-10z" data-original="#394D5C"/><path d="m34 38h13v2h-13z" data-original="#394D5C"/><path d="m49 38h5v2h-5z" data-original="#394D5C"/><path d="m34 30h13v2h-13z" data-original="#394D5C"/><path d="m49 30h5v2h-5z" data-original="#394D5C"/><path d="m34 34h5v2h-5z" data-original="#394D5C"/><path d="m41 34h5v2h-5z" data-original="#394D5C"/><path d="m48 34h6v2h-6z" data-original="#394D5C"/></g></g> </svg>
