<?xml version="1.0" encoding="iso-8859-1"?>
<!-- Generator: Adobe Illustrator 19.0.0, SVG Export Plug-In . SVG Version: 6.00 Build 0)  -->
<svg version="1.1" id="Capa_1" xmlns="http://www.w3.org/2000/svg" xmlns:xlink="http://www.w3.org/1999/xlink" x="0px" y="0px"
	 viewBox="0 0 512 512" style="enable-background:new 0 0 512 512;" xml:space="preserve">
<path style="fill:#92ECF6;" d="M230.5,181c-41.355,0-75,33.645-75,75s33.645,75,75,75s75-33.645,75-75S271.855,181,230.5,181z"/>
<path style="fill:#2FD6F0;" d="M375.5,120c33.084,0,60-26.916,60-60s-26.916-60-60-60s-60,26.916-60,60S342.416,120,375.5,120z"/>
<path style="fill:#92ECF6;" d="M105.5,160c44.112,0,80-35.888,80-80s-35.888-80-80-80s-80,35.888-80,80S61.388,160,105.5,160z"/>
<path style="fill:#2FD6F0;" d="M406.5,301c-44.112,0-80,35.888-80,80s35.888,80,80,80s80-35.888,80-80S450.612,301,406.5,301z"/>
<path style="fill:#92ECF6;" d="M85.5,392c-33.084,0-60,26.916-60,60s26.916,60,60,60s60-26.916,60-60S118.584,392,85.5,392z"/>
<path style="fill:#2FD6F0;" d="M230.5,181v150c41.355,0,75-33.645,75-75S271.855,181,230.5,181z"/>
<g>
</g>
<g>
</g>
<g>
</g>
<g>
</g>
<g>
</g>
<g>
</g>
<g>
</g>
<g>
</g>
<g>
</g>
<g>
</g>
<g>
</g>
<g>
</g>
<g>
</g>
<g>
</g>
<g>
</g>
</svg>
