<svg height="512" viewBox="0 0 192 192" width="512" xmlns="http://www.w3.org/2000/svg" xmlns:xlink="http://www.w3.org/1999/xlink"><linearGradient id="New_Gradient_Swatch_1" gradientUnits="userSpaceOnUse" x1="32.11" x2="159.941" y1="174.727" y2="46.896"><stop offset="0" stop-color="#ff85a6"/><stop offset="1" stop-color="#d0b3e4"/></linearGradient><g id="_14-skull" data-name="14-skull"><g id="Flat"><path d="m96.351 16h-.344c-43.27 0-79.122 35.083-79.99 78.363a79.962 79.962 0 0 0 23.983 58.753v22.884a16.019 16.019 0 0 0 16 16h80a16.019 16.019 0 0 0 16-16v-22.885a79.989 79.989 0 0 0 -55.649-137.115zm-32.351 112a24 24 0 1 1 24-24 24.027 24.027 0 0 1 -24 24zm64 0a24 24 0 1 1 24-24 24.027 24.027 0 0 1 -24 24z" fill="url(#New_Gradient_Swatch_1)"/><g fill="#fff"><path d="m88 168h16v24h-16z"/><path d="m112 168h16v24h-16z"/><path d="m64 168h16v24h-16z"/></g><circle cx="168" cy="32" fill="#ffe7ed" r="8"/><circle cx="128" cy="8" fill="#ffb6ca" r="8"/><circle cx="96" cy="40" fill="#ffe7ed" r="8"/><circle cx="24" cy="24" fill="#ffcedb" r="8"/><circle cx="72" cy="56" fill="#ffe7ed" r="8"/></g></g></svg>